<svg xmlns="http://www.w3.org/2000/svg" width="160" height="116" viewBox="0 0 160 116">
  <g id="ic_hospital" transform="translate(0 -0.31)">
    <g id="Group_3848" data-name="Group 3848">
      <rect id="Rectangle_57" data-name="Rectangle 57" width="160" height="116" transform="translate(0 0.31)" fill="none"/>
    </g>
    <g id="Group_3855" data-name="Group 3855" transform="translate(36 8.511)">
      <path id="Path_7902" data-name="Path 7902" d="M613.893-24.09a2.565,2.565,0,0,1-1.7-2.831c.062-2.1.026-4.213.013-6.32a2.119,2.119,0,0,1,1.464-2.351c.5-.157.483-.535.483-.93,0-1.523-.01-3.047,0-4.57.016-1.635.746-2.35,2.4-2.376,1.583-.024,1.486.187,1.487-1.555q0-13.71,0-27.421c0-1.776.7-2.757,1.92-2.721,1.194.036,1.831.974,1.831,2.715q0,13.856,0,27.712c0,1.262.005,1.266,1.289,1.267,3.76,0,7.52-.028,11.279.021.937.012,1.2-.264,1.2-1.2q-.046-15.7-.019-31.407c0-3.307,1.438-4.751,4.731-4.751q16.628,0,33.255,0c3.173,0,4.66,1.475,4.661,4.628q0,15.655,0,31.31c0,1.4,0,1.4,1.351,1.4,3.76,0,7.52-.027,11.279.02.912.011,1.137-.295,1.136-1.165q-.032-26.351,0-52.7c0-.889-.259-1.158-1.15-1.151q-7.195.058-14.391,0a1.346,1.346,0,0,0-1.463,1.037c-2.822,6.964-7.952,11.187-15.366,12.353a19.184,19.184,0,0,1-20.726-12.145,1.616,1.616,0,0,0-1.81-1.25c-4.634.059-9.27.025-13.9.026-1.352,0-1.354,0-1.355,1.4,0,1.945.013,3.89-.008,5.834a1.923,1.923,0,0,1-1.461,2.126c-1.313.249-2.251-.579-2.274-2.083-.031-2.009-.056-4.021.01-6.028.031-.959-.221-1.3-1.234-1.27-2.034.063-2.671-.631-2.674-2.664,0-2.139-.01-4.279,0-6.418.01-1.7.731-2.419,2.448-2.421,6.807-.008,13.613-.023,20.42.018a1.655,1.655,0,0,0,1.838-1.213c3.033-7.211,8.42-11.444,16.249-12.254a19.086,19.086,0,0,1,19.762,12.213,1.619,1.619,0,0,0,1.8,1.259c6.709-.051,13.419-.027,20.128-.026,2.168,0,2.78.613,2.782,2.775,0,2.107.01,4.214,0,6.32-.011,1.7-.733,2.41-2.441,2.434-1.524.021-1.443-.17-1.443,1.5q0,26.011,0,52.022c0,1.652-.06,1.438,1.483,1.462,1.65.025,2.383.741,2.4,2.374.016,1.523.022,3.047,0,4.57a.887.887,0,0,0,.668,1.009,1.9,1.9,0,0,1,1.275,1.982c.018,2.4,0,4.8.009,7.2a2.326,2.326,0,0,1-1.68,2.247ZM655-60.268c0-5.248-.014-10.5.014-15.744,0-.792-.224-1.066-1.039-1.06q-6.8.049-13.606,0c-.882-.008-1.081.3-1.079,1.122q.035,15.7,0,31.391c0,.839.221,1.119,1.09,1.111q6.754-.06,13.509,0c.923.009,1.134-.313,1.129-1.172C654.98-49.837,655-55.052,655-60.268Zm19.448-.012c0-5.216-.019-10.432.018-15.647.007-.894-.267-1.155-1.153-1.147q-6.705.059-13.411,0c-.863-.007-1.171.215-1.168,1.132q.045,15.7,0,31.391c0,.858.253,1.105,1.1,1.1,4.438-.037,8.876-.016,13.314-.018,1.289,0,1.293,0,1.294-1.26Q674.447-52.505,674.444-60.28ZM656.85-119.843a15.553,15.553,0,0,0-15.6,15.623,15.559,15.559,0,0,0,15.6,15.63A15.559,15.559,0,0,0,672.5-104.264,15.557,15.557,0,0,0,656.85-119.843Zm-.02,91.932H696.1c.357,0,.713-.011,1.069-.008.394,0,.6-.166.6-.577,0-.94-.007-1.879,0-2.819,0-.465-.233-.628-.664-.618-.388.009-.778,0-1.167,0H618.664c-2.709,0-2.709,0-2.7,2.675,0,1.348,0,1.351,1.4,1.351Zm.005-7.779h37.328c.324,0,.649-.017.972,0,.488.022.711-.183.7-.685-.017-.875-.022-1.75,0-2.624.016-.567-.262-.739-.774-.715-.356.017-.713,0-1.069,0H620.506c-2.6,0-2.6,0-2.6,2.583,0,1.441,0,1.443,1.5,1.443ZM627.7-102.2c2.947,0,5.894-.027,8.84.017.884.013,1.148-.266,1.009-1.131a6.09,6.09,0,0,1,0-1.838c.121-.809-.113-1.091-.954-1.088q-8.841.04-17.682,0c-.731,0-1.083.183-1.018.977a12.344,12.344,0,0,1,0,2.038c-.069.823.271,1.047,1.059,1.036C621.871-102.226,624.785-102.2,627.7-102.2Zm58.226,0c2.947,0,5.894-.031,8.84.019.872.015,1.157-.276,1.083-1.115a13.943,13.943,0,0,1,0-2.039c.04-.673-.216-.916-.894-.9-1.586.035-3.173.009-4.76.009-4.339,0-8.679.015-13.018-.012-.807-.005-1.109.221-.983,1.064a6.516,6.516,0,0,1,0,1.934c-.132.86.2,1.062.995,1.053C680.1-102.222,683.011-102.2,685.926-102.2Z" transform="translate(-612.192 123.529)" fill="#628ec1"/>
      <path id="Path_7903" data-name="Path 7903" d="M636.74,32.843a1.82,1.82,0,0,1-1.864-1.813,1.845,1.845,0,0,1,3.689.062A1.809,1.809,0,0,1,636.74,32.843Z" transform="translate(-628.994 10.378)" fill="#628ec1"/>
      <path id="Path_7904" data-name="Path 7904" d="M750.952,109.634c0,.614.038,1.232-.009,1.843a1.959,1.959,0,0,1-1.816,1.937,1.927,1.927,0,0,1-1.894-1.952c-.056-1.227-.054-2.459,0-3.686a1.936,1.936,0,0,1,1.812-1.937,1.957,1.957,0,0,1,1.9,1.952C750.99,108.4,750.953,109.019,750.952,109.634Z" transform="translate(-712.185 -46.361)" fill="#628ec1"/>
      <path id="Path_7905" data-name="Path 7905" d="M810.956,109.651c0,.582.03,1.166-.006,1.746a1.972,1.972,0,0,1-1.839,2.017,1.931,1.931,0,0,1-1.88-1.968c-.053-1.227-.054-2.46,0-3.686a1.852,1.852,0,1,1,3.7-.049c.058.642.01,1.293.01,1.939Z" transform="translate(-756.627 -46.363)" fill="#628ec1"/>
      <path id="Path_7906" data-name="Path 7906" d="M739.755-82.27c0-.616-.03-1.233.005-1.847a3.907,3.907,0,0,1,3.869-3.847c.129-.007.259,0,.389,0,1.734-.019,1.545.159,1.566-1.573a3.952,3.952,0,0,1,4.248-4.259c1.037-.01,2.075-.013,3.111,0a3.936,3.936,0,0,1,4.17,4.142,3,3,0,0,1,0,.486c-.132.907.193,1.235,1.161,1.226,3.249-.03,4.673,1.441,4.676,4.687,0,.94.024,1.881-.007,2.819a3.921,3.921,0,0,1-4.018,4,3.1,3.1,0,0,1-.583,0c-.99-.156-1.261.259-1.249,1.237.039,3.117-1.475,4.6-4.569,4.6-1,0-2.011.031-3.014-.011a3.905,3.905,0,0,1-3.92-3.9c-.009-.162,0-.324-.005-.486-.011-1.432-.011-1.432-1.4-1.442-2.893-.02-4.419-1.56-4.429-4.471,0-.454,0-.908,0-1.361Zm19.441.1a7.4,7.4,0,0,1,.007-.971c.116-.868-.256-1.167-1.1-1.087-.61.058-1.23.011-1.845.011-2.309,0-2.893-.578-2.9-2.854,0-3.06,0-3.04-3.074-2.993-.7.011-1,.2-.963.936.049.9.032,1.814,0,2.72a2.02,2.02,0,0,1-2.192,2.184c-.939.029-1.879.027-2.818,0-.558-.013-.843.163-.82.771.03.841.025,1.684,0,2.526-.014.548.227.747.755.735.874-.019,1.749-.009,2.623,0,1.712.017,2.433.727,2.455,2.417.011.907.018,1.814,0,2.72-.008.495.2.7.694.693.809-.016,1.621-.031,2.428.009.659.032.943-.191.912-.883-.042-.937-.032-1.879,0-2.817a2,2,0,0,1,2.14-2.134c.582-.026,1.166,0,1.749-.009C759.5-80.226,759.158-79.889,759.2-82.17Z" transform="translate(-706.668 101.516)" fill="#628ec1"/>
    </g>
  </g>
</svg>
