<svg xmlns="http://www.w3.org/2000/svg" width="160" height="116" viewBox="0 0 160 116">
  <g id="ic_homespital" transform="translate(0 -0.31)">
    <g id="Group_3843" data-name="Group 3843">
      <rect id="Rectangle_59" data-name="Rectangle 59" width="160" height="116" transform="translate(0 0.31)" fill="none"/>
    </g>
    <g id="Group_3846" data-name="Group 3846" transform="translate(31 9.943)">
      <path id="Path_7898" data-name="Path 7898" d="M183.63-332.006a4.8,4.8,0,0,1,1.358-1.539q22.759-17.746,45.5-35.512c1.409-1.1,1.944-1.11,3.335-.025q9.416,7.345,18.829,14.7c.318.248.644.485,1.046.787a3.55,3.55,0,0,0,.127-1.46c.012-1.864-.005-3.729.009-5.593a1.945,1.945,0,0,1,2.213-2.219q5.119-.017,10.239,0c1.555,0,2.248.705,2.25,2.276q.01,8.864-.01,17.728a1.592,1.592,0,0,0,.684,1.427q5.143,3.961,10.243,7.98c1.549,1.214,1.6,2.2.215,3.593q-2.942,2.957-5.9,5.9c-1.212,1.209-1.612,1.278-3.229.549a1.948,1.948,0,0,0-.1.985c-.006,4.551.007,9.1-.011,13.651-.007,1.655-1.413,2.619-2.717,1.9a2.051,2.051,0,0,1-1-2c.009-5.53-.012-11.06.022-16.59a1.941,1.941,0,0,0-.848-1.735q-16.419-12.776-32.793-25.608a1.207,1.207,0,0,0-1.822-.017Q214.909-340,198.482-327.232a2.033,2.033,0,0,0-.877,1.816q.038,23.8.021,47.59c0,1.367-.153,1.213,1.208,1.224,1.074.008,2.153-.054,3.222.019.837.058.973-.28.969-1.028-.03-5.372-.016-10.744-.015-16.116,0-1.658.653-2.57,1.842-2.582s1.873.912,1.873,2.553c0,5.4.013,10.807-.015,16.211,0,.726.171.962.937.961q29.057-.032,58.113,0c.819,0,.981-.261.976-1.02-.031-5.309-.017-10.618-.015-15.927a6.446,6.446,0,0,1,.029-.946,1.894,1.894,0,0,1,1.8-1.644,1.889,1.889,0,0,1,1.843,1.6,5.653,5.653,0,0,1,.037.945c0,5.309.018,10.618-.016,15.926-.005.8.153,1.1,1.027,1.07,2.242-.067,4.487-.024,6.73-.022,1.443,0,2.184.451,2.436,1.469.217.878-.213,1.573-1.415,2.285q-47.311,0-94.622.022c-.808,0-1.082-.171-.957-.973a8.726,8.726,0,0,0,.012-1.324,2.468,2.468,0,0,1,2.668-1.5c2.177.065,4.358-.024,6.536.039.873.025,1.095-.233,1.093-1.1q-.04-22.405-.024-44.81a1.347,1.347,0,0,0-.157-.962c-1.357.991-2.354.364-3.351-.68-1.766-1.849-3.6-3.634-5.418-5.434a6.84,6.84,0,0,1-1.347-1.685Zm92.234.546c-.109-.283-.376-.413-.593-.584q-21.17-16.536-42.334-33.078a1.016,1.016,0,0,0-1.522,0q-8.936,7.03-17.917,14-12.175,9.5-24.358,19c-.65.505-.795.811-.11,1.408.9.787,1.708,1.686,2.561,2.53,1.147,1.135.826,1.019,2.013.093q18.457-14.39,36.9-28.8c1.377-1.075,1.971-1.075,3.343,0q6.874,5.362,13.744,10.728,11.763,9.184,23.518,18.379c.516.4.837.492,1.327-.042.961-1.046,2-2.02,3-3.031C275.605-331.031,275.845-331.166,275.864-331.46Zm-11.042-13.445c0-4.739-.009-9.192.01-13.645,0-.635-.358-.613-.792-.611-1.9.006-3.792.032-5.687-.013-.705-.017-.828.266-.82.887.029,2.306.035,4.613,0,6.919a1.485,1.485,0,0,0,.683,1.34c1.263.948,2.5,1.933,3.745,2.9C262.845-346.437,263.733-345.75,264.822-344.905Z" transform="translate(-183.589 369.889)" fill="#628ec1"/>
      <path id="Path_7899" data-name="Path 7899" d="M316.365-166.278q-8.72,0-17.44,0c-1.9,0-2.524-.613-2.524-2.48q0-17.582,0-35.164c0-1.834.628-2.476,2.432-2.476q17.629,0,35.259,0c1.771,0,2.429.644,2.429,2.384q0,17.677,0,35.354c0,1.739-.661,2.382-2.432,2.383Q325.227-166.274,316.365-166.278Zm-9.008-36.406c-2.147,0-4.294.019-6.441-.012-.606-.009-.815.163-.812.793q.036,6.488,0,12.977c0,.6.211.74.769.738q6.488-.027,12.977,0c.566,0,.766-.154.763-.745q-.032-6.488,0-12.976c0-.639-.22-.8-.818-.787C311.65-202.666,309.5-202.684,307.356-202.684Zm25.449,7.341c0-2.179-.017-4.357.011-6.535.008-.6-.148-.822-.787-.818q-6.488.038-12.977,0c-.591,0-.747.2-.744.763q.028,6.488,0,12.977c0,.558.14.772.738.769q6.488-.033,12.977,0c.63,0,.8-.206.793-.812C332.787-191.112,332.806-193.228,332.806-195.343Zm-32.689,18.01c0,2.179.018,4.357-.012,6.535-.008.6.154.819.79.816q6.488-.037,12.977,0c.593,0,.744-.2.742-.766q-.028-6.488,0-12.977c0-.561-.146-.77-.741-.767q-6.488.033-12.977,0c-.633,0-.8.211-.791.814C300.135-181.564,300.116-179.448,300.116-177.333Zm25.447,7.338c2.147,0,4.294-.018,6.441.012.6.009.818-.158.814-.791q-.036-6.488,0-12.977c0-.6-.206-.743-.767-.74q-6.488.027-12.977,0c-.563,0-.768.149-.765.742q.032,6.488,0,12.977c0,.636.215.8.816.789C321.269-170.012,323.417-169.994,325.564-169.994Z" transform="translate(-267.878 247.734)" fill="#628ec1"/>
      <path id="Path_7900" data-name="Path 7900" d="M262.3-108.3a1.821,1.821,0,0,1,1.837,1.78,1.838,1.838,0,0,1-1.862,1.859,1.833,1.833,0,0,1-1.836-1.789A1.821,1.821,0,0,1,262.3-108.3Z" transform="translate(-241.008 174.434)" fill="#628ec1"/>
      <path id="Path_7901" data-name="Path 7901" d="M516.139-102.552a1.91,1.91,0,0,1-1.848,1.892,1.914,1.914,0,0,1-1.843-1.8,1.906,1.906,0,0,1,1.847-1.891A1.913,1.913,0,0,1,516.139-102.552Z" transform="translate(-429.304 171.487)" fill="#628ec1"/>
    </g>
  </g>
</svg>
