<svg xmlns="http://www.w3.org/2000/svg" width="160" height="116" viewBox="0 0 160 116">
  <g id="ic_living" transform="translate(0 -0.31)">
    <g id="Group_3849" data-name="Group 3849">
      <rect id="Rectangle_59" data-name="Rectangle 59" width="160" height="116" transform="translate(0 0.31)" fill="none"/>
    </g>
    <g id="Group_3854" data-name="Group 3854" transform="translate(22 9.632)">
      <path id="Path_7915" data-name="Path 7915" d="M685.6,891.151c.813-2.455,2.265-4.292,4.891-4.934a16.471,16.471,0,0,1,3.751-.178c2.04-.025,1.79.2,1.791-1.742q.007-33.731-.016-67.462a12.612,12.612,0,0,1,2.958-8.508,11.654,11.654,0,0,1,18.658,1.6,12.018,12.018,0,0,1,1.74,5.481c.029.563.262.75.772.915a9.488,9.488,0,0,1,6.984,9.337c.051,1.711.036,3.425,0,5.136-.038,1.933-.971,2.833-2.925,2.838q-6.564.018-13.127,0c-2.03-.006-2.943-.9-2.893-2.951.063-2.577-.349-5.185.359-7.724a9.091,9.091,0,0,1,6.373-6.561c.667-.211.972-.409.879-1.23a8.139,8.139,0,0,0-16.22.318c-.043.568-.034,1.141-.034,1.711q0,33.332,0,66.664c0,2.179,0,2.176,2.133,2.181,1.781,0,3.589-.157,5.369,1.041,0-1.1-.029-1.952.01-2.8.028-.62-.454-.717-.827-.944a11.444,11.444,0,0,1,2.42-20.9c.9-.249,1.147-.606,1.159-1.529.042-3.3-.343-6.625.334-9.9a15.221,15.221,0,0,1,6.484-9.7,1.822,1.822,0,0,1,2.718.23,1.752,1.752,0,0,1-.625,2.56,12.277,12.277,0,0,0-4.876,6.55,12.912,12.912,0,0,0-.554,3.6c-.032,2.283.007,4.566-.024,6.849-.009.64.168.925.841,1.068a11.445,11.445,0,0,1,9.354,11.465c.023,1.065.066,2.135-.012,3.195-.072.987.329,1.232,1.246,1.2,1.748-.06,3.5-.017,5.25-.017h33.217c1.472,0,1.466,0,1.477-1.5a22.115,22.115,0,0,1,.394-5.9,11.194,11.194,0,0,1,8.834-8.413c.76-.173,1-.441.971-1.188-.115-2.886.187-5.783-.2-8.663a11.984,11.984,0,0,0-14.412-9.89c-3.313.827-6.562,1.912-9.85,2.843-5.854,1.657-11.511.558-17.124-1.248-2.923-.94-5.808-2.054-8.973-1.955a1.608,1.608,0,0,1-1.606-1.722,1.766,1.766,0,0,1,1.79-1.719,17.755,17.755,0,0,1,6.5.98c2.861.9,5.711,1.827,8.649,2.472a21.758,21.758,0,0,0,10.706-.434c3.034-.85,6.029-1.855,9.085-2.613a15.441,15.441,0,0,1,18.7,12.746,72.51,72.51,0,0,1,.192,9.231,1.216,1.216,0,0,0,1.039,1.389,11.259,11.259,0,0,1,8.082,8.886,1.77,1.77,0,0,1-1.215,2.347c-1.067.255-1.9-.3-2.2-1.594a7.918,7.918,0,0,0-6.857-6.542c-4.136-.711-8.627,2.731-8.849,6.933-.154,2.922-.093,5.857-.1,8.786-.012,5.175.017,10.35-.022,15.524-.007.924.221,1.263,1.2,1.229,2.128-.073,4.261-.011,6.392-.027,1.351-.01,1.773-.428,1.778-1.784.014-3.463-.02-6.925.023-10.387.01-.834-.264-1.023-1.049-.959a9.966,9.966,0,0,1-4.576-.747c-1.156-.466-1.667-1.344-1.358-2.286a1.81,1.81,0,0,1,2.533-1.024c3.893,1.3,7.086.369,9.613-2.883a1.828,1.828,0,0,1,2.665-.594c.854.67.9,1.61.114,2.728a9.856,9.856,0,0,1-3.5,3.207,1.681,1.681,0,0,0-.967,1.807c.034,3.691.02,7.382.013,11.072-.007,3.459-1.908,5.352-5.381,5.352q-31.619,0-63.239,0c-3.194,0-4.895-1.406-5.351-4.549-.129-.886-.668-.66-1.142-.661-5.745-.011-11.491-.037-17.236.015A3.233,3.233,0,0,1,685.6,894.8Zm58.478-9.611c-6.426,0-12.852.019-19.277-.02-1-.006-1.376.2-1.362,1.3.063,4.638.049,9.277.008,13.916-.008.913.2,1.236,1.186,1.233q19.391-.05,38.783,0c1.055,0,1.25-.344,1.24-1.3-.043-4.6-.06-9.2.01-13.8.017-1.152-.37-1.365-1.424-1.357C756.854,881.564,750.466,881.541,744.078,881.541Zm-24.174,3.3h-.067c0-4.068.089-8.138-.027-12.2a7.7,7.7,0,0,0-6.268-7.042,7.941,7.941,0,0,0-8.739,4.292,8.059,8.059,0,0,0,1.656,9.233,7.956,7.956,0,0,0,8.578,1.625,1.77,1.77,0,0,1,2.453.982,1.809,1.809,0,0,1-1.28,2.319,10.192,10.192,0,0,1-4.684.768c-.724-.057-1,.1-1,.9.038,3.5.006,7,.022,10.495.006,1.327.442,1.731,1.82,1.74,2.129.013,4.26-.04,6.388.024.906.027,1.169-.259,1.16-1.15C719.881,892.826,719.9,888.833,719.9,884.84Zm-2.326-54.706c1.708,0,3.417-.019,5.124.01.618.011.914-.173.9-.831-.038-1.4.039-2.813-.07-4.21a5.834,5.834,0,0,0-5.978-5.626,5.938,5.938,0,0,0-5.858,5.8c-.078,1.362,0,2.733-.037,4.1-.018.612.22.78.8.77C714.162,830.116,715.87,830.134,717.578,830.134Zm-19.913,62.594c2.621,0,5.242-.033,7.862.018.924.018,1.016-.381.825-1.1a2.9,2.9,0,0,0-2.7-2.071q-5.868-.038-11.736,0a2.916,2.916,0,0,0-2.749,2.168c-.22.725-.09,1.018.751,1C692.5,892.7,695.082,892.728,697.665,892.727Z" transform="translate(-685.6 -804.384)" fill="#628ec1"/>
      <path id="Path_7916" data-name="Path 7916" d="M1004.066,809.632c3.08,0,6.16-.016,9.24,0,3.79.024,5.9,2.169,5.908,5.968q.007,9.24,0,18.48c0,3.652-2.142,5.851-5.779,5.868q-9.411.043-18.823,0c-3.551-.019-5.743-2.219-5.764-5.8q-.053-9.354,0-18.708c.02-3.627,2.22-5.78,5.865-5.81C997.829,809.612,1000.947,809.632,1004.066,809.632Zm-.018,3.522c-3.082,0-6.165-.007-9.247,0-1.8.006-2.392.585-2.407,2.394-.022,2.7.048,5.4-.033,8.1-.033,1.115.309,1.351,1.4,1.376,7.347.165,12.992,3.386,16.657,9.779a2.628,2.628,0,0,0,2.87,1.665c1.75-.154,2.428-.687,2.431-2.428q.015-9.247,0-18.493c0-1.75-.66-2.392-2.425-2.4C1010.213,813.147,1007.13,813.154,1004.048,813.154Zm3.2,23.28c-2.531-5.069-8.523-8.194-14.125-7.925-.54.026-.733.276-.729.781.016,1.784-.025,3.57.047,5.352a1.688,1.688,0,0,0,1.818,1.779C998.544,836.451,1002.832,836.434,1007.244,836.434Z" transform="translate(-902.28 -808.129)" fill="#628ec1"/>
      <path id="Path_7917" data-name="Path 7917" d="M838.657,999.749a1.745,1.745,0,0,1-1.733-1.652c-.049-.6-.214-.835-.84-.9a1.658,1.658,0,0,1-1.686-1.783,1.625,1.625,0,0,1,1.677-1.664c.616-.045.8-.3.848-.9a1.614,1.614,0,0,1,1.72-1.618,1.577,1.577,0,0,1,1.7,1.617c.033.621.25.853.857.9a1.615,1.615,0,0,1,1.673,1.659,1.648,1.648,0,0,1-1.667,1.792c-.6.068-.836.242-.861.88A1.7,1.7,0,0,1,838.657,999.749Z" transform="translate(-791.929 -937.904)" fill="#628ec1"/>
      <path id="Path_7918" data-name="Path 7918" d="M920.969,999.721a1.726,1.726,0,0,1-1.746-1.609c-.058-.561-.136-.875-.811-.928a1.733,1.733,0,0,1,.01-3.466c.566-.045.768-.262.792-.838a1.615,1.615,0,0,1,1.657-1.675,1.647,1.647,0,0,1,1.773,1.682c.055.678.365.789.908.849a1.717,1.717,0,0,1-.014,3.429c-.682.063-.852.318-.9.968A1.709,1.709,0,0,1,920.969,999.721Z" transform="translate(-850.736 -937.882)" fill="#628ec1"/>
      <path id="Path_7919" data-name="Path 7919" d="M1046.458,836.42a4.979,4.979,0,1,1,5.065-4.955A4.99,4.99,0,0,1,1046.458,836.42Zm.16-6.433a1.439,1.439,0,0,0-1.571,1.373,1.455,1.455,0,0,0,1.466,1.543,1.359,1.359,0,0,0,1.432-1.439A1.344,1.344,0,0,0,1046.618,829.988Z" transform="translate(-939.937 -820.162)" fill="#628ec1"/>
    </g>
  </g>
</svg>
