<svg xmlns="http://www.w3.org/2000/svg" width="24" height="24" viewBox="0 0 24 24">
  <g id="ic_location" transform="translate(-9602 -1815)">
    <rect id="Rectangle_85" data-name="Rectangle 85" width="24" height="24" transform="translate(9602 1815)" fill="none"/>
    <path id="Path_7939" data-name="Path 7939" d="M8.53,0a8.543,8.543,0,0,1,6,2.49A8.4,8.4,0,0,1,17,8.46h0v.05c-.06,3.03-1.76,5.82-3.88,8a22.12,22.12,0,0,1-3.98,3.24,1.044,1.044,0,0,1-1.35,0A22,22,0,0,1,2.2,14.54,10.807,10.807,0,0,1,0,8.39,8.47,8.47,0,0,1,8.53,0Zm0,5.93a2.665,2.665,0,1,0-.03,5.33h.03a2.7,2.7,0,0,0,1.89-.76A2.659,2.659,0,0,0,8.53,5.93Z" transform="translate(9606 1817)" fill="#628ec1"/>
  </g>
</svg>
