<svg xmlns="http://www.w3.org/2000/svg" width="160" height="116" viewBox="0 0 160 116">
  <g id="ic_research" transform="translate(0 -0.31)">
    <g id="Group_3852" data-name="Group 3852">
      <rect id="Rectangle_57" data-name="Rectangle 57" width="160" height="116" transform="translate(0 0.31)" fill="none"/>
    </g>
    <g id="Group_3853" data-name="Group 3853" transform="translate(32 9.632)">
      <path id="Path_7909" data-name="Path 7909" d="M1267.2,366.75a1.416,1.416,0,0,0,.7.263,5.772,5.772,0,0,1,4.578,5.753c.028,11.751.009,23.5.028,35.254,0,.873-.329,1.16-1.182,1.14-2.913-.069-2.585.383-2.588-2.563q-.013-16.205-.006-32.41a10.8,10.8,0,0,0-.062-1.512,2.147,2.147,0,0,0-2.161-1.986c-.252-.017-.5-.01-.758-.01h-67.1c-.221,0-.443,0-.663.006a2.2,2.2,0,0,0-2.3,2.345c-.031,1.832-.011,3.664-.011,5.5q0,20.944,0,41.887c0,2.413.671,3.076,3.107,3.077q11.894,0,23.787,0c1.346,0,1.394.042,1.391,1.382-.007,2.868.256,2.447-2.475,2.473-1.54.015-1.542,0-1.543,1.554,0,1.9.026,3.791-.01,5.686-.015.781.275,1.06,1.051,1.047,1.99-.034,3.981.022,5.97-.023.882-.02,1.2.322,1.135,1.174-.048.628-.016,1.263-.011,1.895,0,.553-.266.8-.813.8q-7.155,0-14.31,0c-.594,0-.876-.253-.865-.852.011-.663.025-1.328-.006-1.99-.034-.719.245-1.054.991-1.024s1.516-.009,2.274,0c.515.005.737-.221.735-.742-.011-2.275-.019-4.549,0-6.823.007-.816-.547-.7-1.038-.7q-8.292-.006-16.584,0a7.8,7.8,0,0,1-2.247-.28,5.872,5.872,0,0,1-4.174-4.265,2.236,2.236,0,0,0-.292-.89v-49.67a4.971,4.971,0,0,0,.232-.609,5.886,5.886,0,0,1,4.656-4.656,4.95,4.95,0,0,0,.609-.233Z" transform="translate(-1191.75 -366.75)" fill="#628ec1"/>
      <path id="Path_7910" data-name="Path 7910" d="M1388.692,571.642a7.922,7.922,0,0,1-1.981-1.585q-5.619-5.64-11.255-11.264c-1.454-1.456-1.448-2.267.012-3.745.936-.948.937-.949,0-1.893-.915-.917-1.861-1.805-2.737-2.758-.515-.558-.9-.564-1.5-.1a21.211,21.211,0,0,1-10.093,4.26,21.863,21.863,0,1,1,18.424-24.862,21.519,21.519,0,0,1-4.239,16.512c-.458.6-.459.982.1,1.5,1.085,1.012,2.122,2.077,3.155,3.144.395.408.673.4,1.1.011,2.267-2.068,2.514-2.051,4.679.113q5.329,5.327,10.662,10.65a8.182,8.182,0,0,1,1.646,2.053v.569a7.217,7.217,0,0,1-1.223,1.648c-1.129,1.087-2.215,2.219-3.334,3.316a11.152,11.152,0,0,1-2.836,2.429Zm-48.777-38.712a18.048,18.048,0,1,0,18.053-18.024A18.121,18.121,0,0,0,1339.916,532.929Zm49.032,33.829a2.071,2.071,0,0,0,.414-.244c.722-.707,1.43-1.429,2.149-2.138.342-.337.2-.6-.082-.883q-4.491-4.488-8.973-8.985a.612.612,0,0,0-1.03,0c-.59.616-1.185,1.23-1.815,1.8-.5.454-.43.791.023,1.24,2.916,2.891,5.812,5.8,8.718,8.7C1388.527,566.433,1388.732,566.579,1388.947,566.759Z" transform="translate(-1299.59 -474.577)" fill="#628ec1"/>
      <path id="Path_7911" data-name="Path 7911" d="M1301.131,410.958a4.567,4.567,0,0,1-1.959-.29,1.071,1.071,0,0,0-1.336.34c-1.6,1.621-3.2,3.237-4.829,4.821a1.361,1.361,0,0,0-.407,1.579,5.942,5.942,0,1,1-11.508,2.874,5.476,5.476,0,0,1,.246-3.075.988.988,0,0,0-.281-1.18q-2.566-2.527-5.094-5.092a1.012,1.012,0,0,0-1.181-.295,5.914,5.914,0,0,1-3.994-.006c-.609-.218-.942.058-1.315.433-2.205,2.218-4.446,4.4-6.615,6.654-.633.657-1.034.628-1.56-.039a12.077,12.077,0,0,0-1-1.011c-.929-.927-.93-.927.032-1.889,2.122-2.123,4.235-4.254,6.373-6.36a1.345,1.345,0,0,0,.44-1.569,5.932,5.932,0,0,1,7.912-7.3,5.845,5.845,0,0,1,3.7,5.292,4.655,4.655,0,0,1-.332,2.043,1.172,1.172,0,0,0,.324,1.426c1.674,1.631,3.321,3.291,4.963,4.955a1.065,1.065,0,0,0,1.259.318,5.881,5.881,0,0,1,3.9-.011,1.136,1.136,0,0,0,1.341-.341c1.506-1.532,3-3.074,4.566-4.548a1.83,1.83,0,0,0,.595-2.135,5.846,5.846,0,0,1,3.337-6.966,5.912,5.912,0,0,1,7.346,2.184,5.928,5.928,0,0,1-4.931,9.19Zm0-8a2.077,2.077,0,0,0-2.137,2.048,2.11,2.11,0,0,0,2.067,2.136,2.07,2.07,0,0,0,2.119-2.064A2.042,2.042,0,0,0,1301.132,402.956Zm-14.181,18.323a2.073,2.073,0,0,0,2.094-2.092,2.111,2.111,0,0,0-2.109-2.1,2.074,2.074,0,0,0-2.077,2.109A2.049,2.049,0,0,0,1286.951,421.279Zm-14.187-18.322a2.108,2.108,0,0,0-2.095,2.106,2.119,2.119,0,0,0,4.237-.046A2.111,2.111,0,0,0,1272.764,402.957Z" transform="translate(-1242.454 -390.885)" fill="#628ec1"/>
      <path id="Path_7912" data-name="Path 7912" d="M1231.368,544.971a16.93,16.93,0,0,1-2.259-.138,5.888,5.888,0,0,1-4.9-5.965c-.007-.978.013-1.956,0-2.932-.011-.624.228-.947.886-.929q1.04.029,2.081,0c.647-.018.911.279.9.915-.02.945-.013,1.892,0,2.838a2.084,2.084,0,0,0,2.353,2.314c.914.01,1.829.023,2.743,0,.673-.019,1.02.238.967.938,0,.031,0,.063,0,.095C1234.082,545.423,1234.6,544.882,1231.368,544.971Z" transform="translate(-1216 -492.475)" fill="#628ec1"/>
      <path id="Path_7913" data-name="Path 7913" d="M1226.185,503.3h.284c1.584,0,1.591,0,1.584,1.562-.01,2.337.286,2.2-2.173,2.2-.221,0-.442-.014-.662,0-.707.041-1.078-.247-1.022-.993.019-.251,0-.5,0-.757C1224.2,503.3,1224.2,503.3,1226.185,503.3Z" transform="translate(-1215.99 -468.785)" fill="#628ec1"/>
      <path id="Path_7914" data-name="Path 7914" d="M1436.244,557.142a4.55,4.55,0,0,0-.568,0c-.882.12-1.268-.206-1.432-1.14-.9-5.142-3.995-8.125-9.154-8.9-.542-.082-.8-.306-.8-.841,0-.663.024-1.327-.013-1.988-.047-.856.362-1.126,1.155-1.031a14.168,14.168,0,0,1,8.229,3.7,13.915,13.915,0,0,1,4.49,9.324c.051.619-.157.894-.775.874C1437,557.131,1436.623,557.141,1436.244,557.142Z" transform="translate(-1365.501 -498.618)" fill="#628ec1"/>
    </g>
  </g>
</svg>
