<svg xmlns="http://www.w3.org/2000/svg" width="160" height="116" viewBox="0 0 160 116">
  <g id="ic_sports" transform="translate(0 -0.31)">
    <g id="Group_3845" data-name="Group 3845">
      <rect id="Rectangle_57" data-name="Rectangle 57" width="160" height="116" transform="translate(0 0.31)" fill="none"/>
    </g>
    <g id="Group_3847" data-name="Group 3847" transform="translate(31 9.632)">
      <path id="Path_7907" data-name="Path 7907" d="M773.776,183.75h26.352a7.7,7.7,0,0,1,5.687,5.687v3.033c-.122.358-.221.726-.369,1.073A7.037,7.037,0,0,1,799.2,198.2a2.356,2.356,0,0,0-1.895.991,42.6,42.6,0,0,0-8.849,26.176c-.043,4.9-.007,9.793-.008,14.69,0,1.959,0,3.917-.008,5.876a1.837,1.837,0,0,1-1.084,1.752,1.914,1.914,0,0,1-2.135-.236,8.041,8.041,0,0,1-.761-.711q-4.358-4.354-8.717-8.707c-.181-.179-.3-.473-.682-.466.062.272.109.517.174.758a31.665,31.665,0,0,1,.885,12.668c-1.731,12.569-8.438,21.529-19.841,26.992a35.1,35.1,0,0,1-10.371,2.835h-6.635c-.589-.1-1.179-.189-1.768-.292-12.472-2.167-21.213-9.106-26.324-20.645a35.572,35.572,0,0,1-2.43-9.4v-6.825c.042-.216.1-.43.126-.648a33.372,33.372,0,0,1,11.579-21.623,32.857,32.857,0,0,1,19.989-8.123c1.277-.077,1.371-.15.955-1.408a42.916,42.916,0,0,0-6.879-12.893,1.828,1.828,0,0,0-1.532-.745,7.246,7.246,0,0,1-6.753-8.689,7.426,7.426,0,0,1,5.644-5.779H758.23a2.293,2.293,0,0,1,1.178,1.524c.243,1.385-.7,2.345-2.343,2.347q-11.369.012-22.737,0a7,7,0,0,0-1.785.176,3.26,3.26,0,0,0-2.321,3.967c.443,1.665,1.744,2.527,3.853,2.528q31.927,0,63.854,0a6.434,6.434,0,0,0,.945-.042,3.423,3.423,0,0,0,3.054-3.323,3.371,3.371,0,0,0-3.025-3.236,8.853,8.853,0,0,0-1.322-.065q-11.274-.006-22.548-.005c-1.346,0-2.052-.406-2.365-1.32C772.337,185.335,772.676,184.553,773.776,183.75Zm-29.3,79.146q0,6.393,0,12.786c0,1.012.181,1.177,1.17,1.061q1.174-.137,2.338-.356a29.646,29.646,0,0,0,13.637-6.427.844.844,0,0,0,.288-1.213,45.806,45.806,0,0,1-5.39-18.68c-.062-.837-.411-1.052-1.189-1.044-3.188.031-6.377.011-9.566.013-1.258,0-1.289.03-1.29,1.264Q744.477,256.6,744.481,262.9Zm-3.952,0c0-4.231-.022-8.462.018-12.692.009-.927-.308-1.2-1.21-1.187q-4.83.065-9.661,0c-.857-.01-1.126.274-1.191,1.132a45.331,45.331,0,0,1-5.291,18.418,1.011,1.011,0,0,0,.335,1.505,30.054,30.054,0,0,0,15.83,6.671c.986.118,1.167-.055,1.167-1.062Q740.534,269.29,740.529,262.9Zm3.952-31.773q0,6.344,0,12.687c0,.6-.006,1.181.834,1.181l10.32,0a.753.753,0,0,0,.861-.783q.083-1.131.217-2.259a45.61,45.61,0,0,1,5.159-16.516.891.891,0,0,0-.236-1.3,29.625,29.625,0,0,0-15.784-6.745c-1.254-.145-1.368,0-1.369,1.242Q744.477,224.874,744.481,231.123Zm-3.952.113q0-6.208,0-12.417c0-1.485-.114-1.61-1.554-1.426a30.028,30.028,0,0,0-15.466,6.63,1.021,1.021,0,0,0-.3,1.518,45.545,45.545,0,0,1,5.27,18.344c.065.878.408,1.132,1.229,1.125,3.191-.027,6.382-.006,9.573-.013,1.154,0,1.24-.1,1.241-1.248Q740.533,237.493,740.529,231.237Zm4.909-19.991c.133.446.3,1.02.474,1.593a.87.87,0,0,0,.858.61,30.719,30.719,0,0,1,6.622,1.531,1.216,1.216,0,0,0,1.443-.307q3.863-3.9,7.767-7.766c.445-.44.418-.743-.014-1.168q-2.769-2.721-5.49-5.491c-.455-.464-.786-.484-1.251-.016q-4.97,5.006-9.969,9.984A1.159,1.159,0,0,0,745.438,211.246Zm-26.833,37.79c-1.609,0-3.218.029-4.825-.012-.824-.021-1.087.347-.971,1.091.175,1.12.316,2.249.557,3.355a29.386,29.386,0,0,0,5.818,12.182c.312.392.607.825,1,.038A41.4,41.4,0,0,0,724.44,250.1c.061-.856-.3-1.1-1.1-1.08C721.76,249.063,720.183,249.035,718.606,249.036Zm47.874,0c-1.578,0-3.156,0-4.734,0-1.136,0-1.249.1-1.161,1.267.078,1.036.211,2.069.366,3.1a41.872,41.872,0,0,0,3.849,12.224c.3.621.574.68.978.107.618-.876,1.287-1.718,1.87-2.616a29.69,29.69,0,0,0,4.519-12.532c.183-1.4.047-1.546-1.333-1.548Q768.657,249.032,766.48,249.035ZM766.366,245c1.135,0,2.271.015,3.406,0,2.408-.038,2.7.471,2.24-2.5A29.7,29.7,0,0,0,765.8,228.38c-.419-.528-.7-.566-.992.086-.37.836-.78,1.654-1.136,2.5a42.418,42.418,0,0,0-3.085,12.527c-.133,1.366.016,1.506,1.424,1.51C763.465,245,764.916,245,766.366,245Zm-47.8,0q2.132,0,4.265,0c1.627,0,1.733-.086,1.575-1.737a42.381,42.381,0,0,0-4.126-14.691c-.341-.7-.611-.756-1.108-.126a30.189,30.189,0,0,0-6.361,15.382c-.106.876.246,1.2,1.111,1.181C715.466,244.972,717.015,245,718.563,245Zm47.459-35.64c-.253,0-.39.184-.543.337-1.9,1.892-3.787,3.792-5.694,5.674-.364.359-.427.616-.029,1.007q2.866,2.818,5.687,5.681c.388.393.677.451,1.094.029q2.821-2.862,5.685-5.682c.364-.36.425-.617.027-1.008-1.91-1.879-3.8-3.782-5.693-5.675C766.4,209.569,766.266,209.385,766.022,209.36Zm9.644,9.536a.757.757,0,0,0-.608.333c-1.9,1.895-3.785,3.8-5.694,5.683-.421.416-.364.708.03,1.1q2.8,2.759,5.552,5.557c.469.478.8.44,1.25-.017q2.721-2.767,5.491-5.484c.473-.462.471-.771,0-1.234-1.872-1.831-3.71-3.7-5.563-5.546C775.969,219.132,775.793,219,775.666,218.9Zm-.231-19.049a4.323,4.323,0,0,0-.465.362c-1.857,1.849-3.7,3.714-5.57,5.549-.454.446-.4.752.026,1.17q2.8,2.759,5.557,5.562c.428.436.712.46,1.153.009q2.748-2.81,5.558-5.561c.441-.433.448-.733.009-1.166-1.868-1.838-3.711-3.7-5.567-5.552A.892.892,0,0,0,775.435,199.847Zm-23.278-1.309a3.1,3.1,0,0,0-.525-.272q-5.96-.015-11.921-.022c-.746,0-.476.352-.243.693a42.558,42.558,0,0,1,3.881,6.921c.327.745.616.582,1.067.125q3.026-3.063,6.09-6.087C750.974,199.436,751.521,199.057,752.156,198.538ZM780,198.364c2.695,2.7,5.255,5.258,7.811,7.823.46.462.627.115.8-.265a44.073,44.073,0,0,1,3.942-6.993c.37-.534.257-.692-.366-.69-3.879.011-7.757.006-11.636.011A3.816,3.816,0,0,0,780,198.364Zm6.591,12.65c-.033-.68-.7-1.093-1.248-1.517-.518-.4-.768.238-1.046.51-1.781,1.747-3.523,3.534-5.311,5.274-.482.469-.463.766.009,1.224,1.608,1.562,3.176,3.165,4.77,4.743.189.187.349.566.657.435.266-.113.237-.5.253-.769a36.1,36.1,0,0,1,.838-5.611C785.815,213.915,786.2,212.547,786.59,211.013Zm-2.143,18.224a.429.429,0,0,0-.457.18c-1.7,1.691-3.379,3.394-5.089,5.07-.435.426-.336.706.05,1.085,1.685,1.657,3.346,3.337,5.022,5,.121.12.221.335.475.218ZM760.88,198.3c1.69,1.7,3.251,3.293,4.831,4.861.31.308.58.039.809-.188.7-.69,1.381-1.389,2.081-2.074.823-.806,1.656-1.6,2.484-2.4l-.145-.2Z" transform="translate(-708.75 -183.75)" fill="#628ec1"/>
      <path id="Path_7908" data-name="Path 7908" d="M930.181,183.75a2.249,2.249,0,0,1,1.188,1.608,1.961,1.961,0,0,1-1.209,2.124,1.972,1.972,0,0,1-2.154-3.2,6.515,6.515,0,0,1,.659-.529Z" transform="translate(-872.169 -183.75)" fill="#628ec1"/>
    </g>
  </g>
</svg>
